<svg width="272" height="16" viewBox="0 0 272 16" fill="none" xmlns="http://www.w3.org/2000/svg">
<line y1="-0.5" x2="12" y2="-0.5" transform="matrix(0 1 1 0 1.94406 0)" stroke="#F2E2E8"/>
<path d="M271.354 11.6464C271.549 11.8417 271.549 12.1583 271.354 12.3536L268.172 15.5355C267.976 15.7308 267.66 15.7308 267.464 15.5355C267.269 15.3403 267.269 15.0237 267.464 14.8284L270.293 12L267.464 9.17157C267.269 8.97631 267.269 8.65973 267.464 8.46447C267.66 8.2692 267.976 8.2692 268.172 8.46447L271.354 11.6464ZM1 11.5L271 11.5V12.5L1 12.5L1 11.5Z" fill="#F2E2E8"/>
</svg>
