<svg width="60" height="44" viewBox="0 0 60 44" fill="none" xmlns="http://www.w3.org/2000/svg">
<circle cx="6" cy="38" r="6" transform="rotate(-90 6 38)" fill="#D9D9D9"/>
<circle cx="6" cy="22" r="6" transform="rotate(-90 6 22)" fill="#D9D9D9"/>
<circle cx="6" cy="6" r="6" transform="rotate(-90 6 6)" fill="#D9D9D9"/>
<circle cx="22" cy="6" r="6" transform="rotate(-90 22 6)" fill="#D9D9D9"/>
<circle cx="38" cy="6" r="6" transform="rotate(-90 38 6)" fill="#D9D9D9"/>
<circle cx="54" cy="6" r="6" transform="rotate(-90 54 6)" fill="#D9D9D9"/>
<circle cx="22" cy="22" r="6" transform="rotate(-90 22 22)" fill="#D9D9D9"/>
<circle cx="38" cy="22" r="6" transform="rotate(-90 38 22)" fill="#D9D9D9"/>
<circle cx="54" cy="22" r="6" transform="rotate(-90 54 22)" fill="#D9D9D9"/>
<circle cx="22" cy="38" r="6" transform="rotate(-90 22 38)" fill="#D9D9D9"/>
<circle cx="38" cy="38" r="6" transform="rotate(-90 38 38)" fill="#D9D9D9"/>
<circle cx="54" cy="38" r="6" transform="rotate(-90 54 38)" fill="#D9D9D9"/>
</svg>
